<?xml version="1.0" encoding="utf-8"?>
<!-- Generator: Adobe Illustrator 26.2.1, SVG Export Plug-In . SVG Version: 6.00 Build 0)  -->
<svg version="1.1" id="Camada_1" xmlns="http://www.w3.org/2000/svg" xmlns:xlink="http://www.w3.org/1999/xlink" x="0px" y="0px"
	 viewBox="0 0 150 150" style="enable-background:new 0 0 150 150;" xml:space="preserve">
<style type="text/css">
	.st0{fill:#5493F7;}
	.st1{fill-rule:evenodd;clip-rule:evenodd;fill:#FFFFFF;}
</style>
<path class="st0" d="M122.86,150H27.14C12.15,150,0,137.85,0,122.86V27.14C0,12.15,12.15,0,27.14,0h95.72
	C137.85,0,150,12.15,150,27.14v95.72C150,137.85,137.85,150,122.86,150z"/>
<path class="st1" d="M119.27,15.14c9.17,0,16.6,7.43,16.6,16.6v88.54c0,9.17-7.43,16.6-16.6,16.6H30.73c-9.17,0-16.6-7.43-16.6-16.6
	V31.74c0-9.17,7.43-16.6,16.6-16.6H119.27z M119.27,26.21c3.06,0,5.53,2.48,5.53,5.53v88.54c0,3.06-2.48,5.53-5.53,5.53H91.6V87.08
	h11.49c2.38,0,4.5-1.52,5.25-3.78l2.45-7.35c0.9-2.69-1.1-5.46-3.94-5.46H91.6V59.41c0-2.77,2.77-5.53,5.53-5.53h11.07
	c3.06,0,5.53-2.48,5.53-5.53v-3.8c0-1.79-1.14-3.39-2.87-3.85c-7.25-1.91-13.73-1.91-13.73-1.91C83.3,38.79,75,48.34,75,56.64v13.83
	H63.93c-3.06,0-5.53,2.48-5.53,5.53v5.53c0,3.06,2.48,5.53,5.53,5.53H75v38.74H30.73c-3.06,0-5.53-2.48-5.53-5.53V31.74
	c0-3.06,2.48-5.53,5.53-5.53H119.27z"/>
</svg>
