<?xml version="1.0" encoding="utf-8"?>
<!-- Generator: Adobe Illustrator 26.2.1, SVG Export Plug-In . SVG Version: 6.00 Build 0)  -->
<svg version="1.1" id="Camada_1" xmlns="http://www.w3.org/2000/svg" xmlns:xlink="http://www.w3.org/1999/xlink" x="0px" y="0px"
	 viewBox="0 0 1000 1000" style="enable-background:new 0 0 1000 1000;" xml:space="preserve">
<style type="text/css">
	.st0{fill:#0D2439;}
</style>
<path class="st0" d="M86.1,784.5c4.2-8.8,7.6-16.3,11.3-23.5c31.7-62,63.5-124,95.3-185.9c43-83.7,86-167.5,129-251.2
	c18.8-36.5,37.7-72.9,56.3-109.4c3.2-6.2,6.9-8.9,14.4-8.7c20.3,0.5,40.7-0.5,61.1,0.1c4.3,0.1,10.1,3.1,12.5,6.6
	c76.2,112.8,152.2,225.8,228,338.8l74.9,111.4c8.8-22.1,17.9-42.4,25.2-63.3c39.6-114.4,52.8-232.3,46.3-352.8
	c-0.6-10.7-1-21.4-2.5-32c-0.4-3.1-3.7-7.2-6.6-8.5c-9.5-3.9-19.7-6.3-29.2-10.2c-3.1-1.3-5.3-5.2-7.4-8.3c-0.8-1.2-0.2-3.4-0.2-5.1
	v-65.6c5.9,1.8,10.7,3.1,15.5,4.7c28.5,9.2,57,18.5,85.6,27.5c6,1.9,8.5,5,9.3,11.4c11.5,88,12.2,177.2,2.1,265.4
	c-9,78.8-26.3,155.6-55.4,229.5c-16.9,42.8-38.4,83.2-62.7,122.2c-6.1,9.7-22.5,9.8-29.2,0c-25.2-36.7-50.2-73.4-75.1-110.3
	c-55.8-82.5-227.1-336.4-257-380.6c-0.8-1.1-1.8-2.1-3.7-4.4L288.1,547.9h173.4c-8-12.2-51.2-77.5-65.7-98.5
	c-4-5.7-3.8-9.9-0.5-15.8c11.6-21,22.5-42.4,34.2-64.7l169.8,251.7c-5.2,0.2-225.7,0.8-332.4,0.2c-12.4-0.1-18.8,3.2-24.3,14.6
	c-22.3,45.9-46,91.1-68.8,136.7c-4.5,9-9.4,13.3-20.3,12.7C131.5,783.7,109.5,784.5,86.1,784.5z"/>
<path class="st0" d="M749.4,554.5c-13-18.9-54.2-80.6-63.9-94.4c-6-8.6-8.4-17.5-8.3-28c0.2-87-0.2-173.9,0.3-260.9
	c0.1-12.1-3.6-16.9-15.1-20.3c-47.9-14.3-95.5-29.4-143-44.9c-11.7-3.8-22.4-4-34-0.2C383,138.4,280.5,170.8,178,203.1
	c-7.7,2.4-10.7,6.3-11.4,14.5c-5.1,67-5.1,133.8,3.9,200.4c3.2,23.9,8,47.6,11.8,71.4c0.6,3.5,0.8,7.9-0.8,10.9
	c-15.2,29.3-30.8,58.4-49.1,87.8c-7.1-27.1-15.5-53.9-21.1-81.3C88.1,393.6,84.6,279.6,99.7,165c1.3-9.9,4.8-14.1,14.7-17.1
	c42.9-13,85.2-27.5,127.9-41.1C327,79.8,411.7,53,496.5,26.4c3.9-1.1,8-1,11.9,0.1C585.8,50.6,663,75,740.4,99
	c7.5,2.3,8.8,6.4,8.8,13.6C749.1,252.3,749.4,545,749.4,554.5z"/>
<path class="st0" d="M687.8,751.6l40.8,59.4c-5,5.5-9.6,11-14.7,16.1C653.4,887.8,583.8,935.7,507,973.4c-3,1.3-6.4,1.3-9.4,0.1
	C396.4,921.5,305.9,856.3,237.1,764c-3.9-5.2-4.1-8.9-1.1-14.5c9.3-17.3,17.9-35,26.8-52.6c1.5-3,3.3-5.8,5.9-10.2
	c9.1,12.2,17.2,23.1,25.5,34c52.2,69.3,119.5,120.7,192.8,165.5c12,7.4,20.4,7.1,32.2-0.1c60.8-36.9,117-79.4,165.1-132.1
	C684.8,753.3,685.7,752.9,687.8,751.6z"/>
</svg>
